<svg xmlns="http://www.w3.org/2000/svg" id="Layer_1" data-name="Layer 1" viewBox="0 0 1074.76 1437.49"><defs><style>.cls-1,.cls-3,.cls-4,.cls-5,.cls-6{fill:#499ca5;}.cls-2,.cls-4{opacity:0.4;}.cls-2,.cls-3,.cls-4,.cls-5,.cls-6{isolation:isolate;}.cls-5{opacity:0.7;}.cls-6{opacity:0.83;}</style></defs><path class="cls-1" d="M38.85,1048.26v21.63c11.8-17,27.29-25.08,47-25.08,21.15,0,36.15,9.35,42.54,30.49,12.29-21.14,27.78-30.49,49.18-30.49,30,0,48.19,18.69,48.19,60v74.5H186.87v-72.53c0-20.66-7.13-29.51-20.66-29.51-14.26,0-24.58,9.84-33.93,33.19v68.85H93.43v-72.53c0-21.4-6.39-29.51-19.42-29.51-15,0-25.82,10.57-35.16,33.19v68.85H0v-131Z"></path><path class="cls-1" d="M310.8,1044.32q28.77,0,45,21.39v-17.45h38.85v131H355.8v-21.14c-10.82,16-25.82,24.34-45.49,24.34-35.9,0-64.18-27.54-64.18-69.59C246.13,1071.86,272.93,1044.32,310.8,1044.32Zm45,68.11c-6.89-22.37-20.66-35.9-37.38-35.9-18.44,0-31.22,13.77-31.22,36.64,0,22.37,13.27,37.13,30.73,37.13,18.2,0,31.72-15,37.87-37.13Z"></path><path class="cls-1" d="M489.07,1044.08c16.22,0,29.75,3.44,43.52,11.8l-8.36,30c-11.07-6.15-20.41-9.35-32-9.35-20.41,0-34.91,13.28-34.91,37.38,0,23.11,13.77,36.63,34.17,36.63,11.07,0,22.13-2.7,33.45-8.11l4.42,30.24c-11.06,6.4-25.82,10.08-42.54,10.08-41.06,0-70.56-25.08-70.56-67.37C416.29,1071.37,447.27,1044.08,489.07,1044.08Z"></path><path class="cls-1" d="M589.88,1006.46v63.43c12-16.22,28-25.32,47.21-25.32,30.49,0,49.91,15.49,49.91,59v75.73H648.15v-73.76c0-19.92-6.15-28.77-21.39-28.77-15,0-27.29,10.57-36.88,33v69.58H551V1006.46Z"></path><path class="cls-1" d="M733.72,987c12,0,22.87,8.36,22.87,21.89,0,13-10.33,21.88-22.87,21.88-11.8,0-23.11-8.36-23.11-21.88C710.61,995.64,721.18,987,733.72,987Zm19.18,61.23v131H714.05v-131Z"></path><path class="cls-1" d="M820.27,1048.26v21.14c12.29-16.72,28.52-24.83,48.68-24.83,30,0,48.44,18.44,48.44,59v75.73H878.54v-73.76c0-20.41-6.88-28.53-20.9-28.53-16.47,0-28.27,10.58-37.37,32.46v69.83H781.42v-131Z"></path><path class="cls-1" d="M1007.63,1044.32c37.38,0,67.13,21.39,67.13,69.34a73.28,73.28,0,0,1-1,11.8H978.87c3.44,18.2,16,27.54,38.6,27.54,17,0,30.24-3.19,45-10.57l6.14,27c-16.23,8.85-33.19,14-58.27,14-48.19,0-72.54-26.8-72.54-69.34C937.8,1073.34,966.08,1044.32,1007.63,1044.32Zm-.73,29.75c-16.72,0-26.07,10.09-28.28,29.26h56.06C1032.71,1084.16,1024.35,1074.07,1006.9,1074.07Z"></path><path class="cls-1" d="M38.85,1209.31v172.86H0V1209.31Z"></path><path class="cls-1" d="M130.56,1247.18c37.38,0,67.13,21.39,67.13,69.34a73.24,73.24,0,0,1-1,11.8H101.79c3.45,18.2,16,27.54,38.61,27.54,17,0,30.24-3.2,45-10.57l6.15,27c-16.23,8.85-33.19,14-58.27,14-48.2,0-72.54-26.8-72.54-69.34C60.73,1276.19,89,1247.18,130.56,1247.18Zm-.74,29.75c-16.72,0-26.06,10.08-28.27,29.26h56.06C155.64,1287,147.28,1276.93,129.82,1276.93Z"></path><path class="cls-1" d="M277.35,1247.18q28.77,0,45,21.39v-17.46H361.2v131.06H322.35V1361c-10.82,16-25.82,24.34-45.49,24.34-35.9,0-64.17-27.53-64.17-69.58C212.69,1274.72,239.49,1247.18,277.35,1247.18Zm45,68.11c-6.88-22.38-20.65-35.9-37.37-35.9-18.44,0-31.23,13.77-31.23,36.64,0,22.37,13.28,37.12,30.74,37.12,18.19,0,31.71-15,37.86-37.12Z"></path><path class="cls-1" d="M428.57,1251.11v21.15c10.09-14.26,23.61-23.6,41.56-23.6,4.67,0,9.1.24,12.78,1.47l-4.91,32.7a51.8,51.8,0,0,0-12.54-1.47c-14.51,0-28.28,11.06-36.89,32v68.85H389.73V1251.11Z"></path><path class="cls-1" d="M537.25,1251.11v21.15c12.3-16.72,28.53-24.83,48.69-24.83,30,0,48.44,18.44,48.44,59v75.73H595.53V1308.4c0-20.4-6.89-28.52-20.9-28.52-16.48,0-28.28,10.57-37.38,32.46v69.83H498.4V1251.11Z"></path><path class="cls-1" d="M681.1,1189.89c12,0,22.86,8.36,22.86,21.88,0,13-10.32,21.89-22.86,21.89-11.81,0-23.12-8.36-23.12-21.89C658,1198.5,668.56,1189.89,681.1,1189.89Zm19.18,61.22v131.06H661.43V1251.11Z"></path><path class="cls-1" d="M767.65,1251.11v21.15c12.29-16.72,28.52-24.83,48.68-24.83,30,0,48.44,18.44,48.44,59v75.73H825.92V1308.4c0-20.4-6.89-28.52-20.9-28.52-16.47,0-28.28,10.57-37.37,32.46v69.83H728.8V1251.11Z"></path><path class="cls-1" d="M899,1388.07c15.74,8.85,40.57,15,59,15,23.11,0,37.13-9.59,37.13-28.52v-18.2c-10.57,15-25.33,22.13-45.74,22.13-36.88,0-63.92-24.34-63.92-65.16s26.55-66.14,64.17-66.14c19.43,0,34.67,7.13,45.49,21.39v-17.46h38.85v132c0,32.21-32,54.34-75.49,54.34-21.88,0-47.21-5.65-64.42-15.49Zm58.77-108.68c-18.69,0-31.48,12.29-31.48,33.93,0,20.41,13,33,31,33,18.2,0,32-12.29,37.87-32C988.45,1292.42,974.93,1279.39,957.72,1279.39Z"></path><g class="cls-2"><g id="Layer_5" data-name="Layer 5"><path class="cls-1" d="M783.25,636.2c5.28-8.09,11.83-17,12.22-26.8C795.9,598.67,788,589.29,782,581c-16-23.26-23.89-49.33-22-77.59,3-22.82,5.63-45.14-1-67.58-7.88-23.63-29.64-37.2-52.94-42.53-41.19-5.31-81.69,16.12-105.39,49.28-15.82,24.09-25,50.72-28.51,78.76-1.6,12.93-1.31,26.64-2.38,39.57-1,12.61-4.27,25-7.84,37.4C547.2,649.19,510.91,694.9,461.7,716c-13.51,5.36-33.27,13.45-47.22,5.12-5.07-3.42-5.43-10-3.68-15.34,2.81-7.49,6-14.76,9.29-22.07.26-.61.51-1.23.74-1.85,12.26-32-21.57-62-52.3-46.79C267,685.46,194.74,542.88,186,468.67c-1.32-11.19-2.85-22.32,2.63-29.33a294.41,294.41,0,0,1,29.52-29.28c16.64-14.15,30.81-31.12,44-48.82,24.49-34.2,44.2-71,51.94-112.69,3.06-20.74,11.25-73.06-20.38-68.16-62.4,9.66-96.82,118.67-107.49,155.65C147.44,470.2,214.91,633.36,312.25,661.72c45.09,13.13,52.31-26.27,78.79-15.33,11,7.54,3.7,24.78-1.27,36-4.41,9.45-10.47,18.43-13.13,28.62-4,16.24,17.05,23.26,28.74,25.81,30.65,6.67,62.2.15,90.45-13.15,35.58-16.74,64.1-47.13,83.12-81.42,15.61-31.1,24.53-64.06,29.19-98.45,5.1-36.54,21.63-74.9,53.26-96,16.78-11.15,61.82-37.3,78-23.1,24.23,20.08,18.28,46.75,16.61,62-2.86,25.81-33.82,54.82-48.42,76.64-35.5,47.3-83.42,81.91-127.71,120.29-20.45,18.12-44.88,35.07-57,60.16-6.4,13.22,6.78,21.07,18.76,20.56,26.34-.47,52.1-5.33,77.07-12.94,29.91-9.11,57.55-23.74,84.92-39.17C748.81,685.3,762.55,667.59,783.25,636.2ZM217.56,296.7c12.78-29.63,24.75-59.2,49.13-81.38,4.2-3.52,8.9-7.19,14.64-7.31,5.26.56,8.59,5.19,9.87,10,2.75,12.82.33,24.57-2.41,37.07-3.11,14.18-8.21,27.75-14,41.19-14.07,30.27-32.66,58-52.59,84.24C143.72,484,205.07,324.72,217.56,296.7Zm522.1,383.86C715.86,703.29,645,737.3,613,746.64c-25.17,6.56-20-6.28-13.18-16.06,15.84-22.79,47.65-57,60.22-70,17.91-18,39-38,65.24-41.77,8.11-.73,18.22-.5,24.27,5.68a28.47,28.47,0,0,1,7.73,14.44c1.3,6.74,1.69,11.41-.15,17.54C754.44,665.41,746.6,673.53,739.66,680.56Z"></path><path class="cls-1" d="M814.41,573.11c5.28-8.09,11.82-17,12.22-26.8.43-10.73-7.45-20.11-13.5-28.42-16-23.26-23.9-49.33-22-77.59,3-22.82,5.64-45.14-1-67.58-7.87-23.63-29.64-37.2-52.93-42.53-41.19-5.31-81.7,16.12-105.39,49.28-15.83,24.09-25,50.72-28.51,78.76-1.6,12.93-1.32,26.64-2.39,39.57-1,12.6-4.26,25-7.83,37.4-14.8,50.89-51.08,96.61-100.29,117.69-13.52,5.36-33.28,13.45-47.22,5.11-5.07-3.41-5.44-10-3.69-15.33,2.82-7.49,6.05-14.76,9.3-22.07.21-.5.42-1,.62-1.53,12.38-31.84-21.43-62.44-52-47.2-101.65,50.67-174-92-182.75-166.29-1.33-11.19-2.85-22.32,2.62-29.33A294.51,294.51,0,0,1,249.27,347c16.64-14.15,30.81-31.12,44-48.82,24.49-34.2,44.2-71,51.94-112.7,3.05-20.73,11.25-73-20.38-68.15C262.42,127,228,236,217.33,272.94,178.59,407.11,246.06,570.27,343.4,598.63c45.09,13.13,52.31-26.27,78.8-15.33,11,7.54,3.69,24.78-1.27,36-4.42,9.46-10.48,18.44-13.14,28.63-4,16.24,17.06,23.26,28.75,25.8,30.64,6.68,62.2.16,90.45-13.14,35.58-16.74,64.1-47.13,83.12-81.42,15.6-31.1,24.53-64.06,29.19-98.45,5.09-36.54,21.63-74.91,53.25-96,16.79-11.14,40.54-14.57,56.69-.37,12.86,10.43,14.35,29.79,12.68,45,0,.26,0,.52-.08.77A166.82,166.82,0,0,1,720,522.93c-32.66,36.29-72.1,65.66-109,97.65-20.45,18.12-44.87,35.07-57,60.16-6.4,13.22,6.79,21.07,18.77,20.56,26.34-.47,52.1-5.33,77.06-12.94,29.92-9.11,57.56-23.74,84.93-39.18C780,622.21,793.7,604.5,814.41,573.11Zm-565.7-339.5c12.78-29.63,24.76-59.2,49.14-81.38,4.2-3.52,8.89-7.19,14.64-7.31,5.25.56,8.58,5.19,9.86,10,2.75,12.82.34,24.56-2.4,37.07-3.12,14.18-8.21,27.75-14,41.19-14.07,30.27-32.66,58-52.59,84.24C174.87,420.9,236.23,261.63,248.71,233.61ZM770.82,617.47C747,640.19,676.2,674.21,644.13,683.55c-25.17,6.56-20-6.28-13.18-16.06,15.85-22.8,47.66-57,60.22-70,17.92-18,39-38,65.25-41.77,8.11-.73,18.21-.51,24.27,5.68a28.47,28.47,0,0,1,7.73,14.44c1.29,6.74,1.68,11.41-.15,17.54C785.6,602.32,777.75,610.44,770.82,617.47Z"></path><path class="cls-3" d="M838.63,480.71c-38.52,18.6-36.49,38.81-22.27,59.83,7.5,11.09,27.77,33.56,9.23,44.38-11.64,6.79-29.24-3.53-37.42-11.82-20.65-22-18.73-58.92-14.86-86.61,4.23-31.59-4-59.29-26.14-82.39-25.93-24.38-69.91-27.64-99.25-7.56-24.86,17.19-47.61,37.11-69.81,57.28-18.44,16.77-39.43,28.78-63.1,37-29.41,9.25-65.09,10.67-91.68,6-23.34-4.13-47-14-65.77-29.64-15.82-14.19-31.15-29.27-41.42-47.41s-14.78-39-17.17-60.29c-1.8-31.08,6.75-59.53,23.63-85.51,17-23.11,39.5-39.62,64.57-53.16,48.5-24.82,102.69-29.2,156-34.53,16.19-1.53,52.57-2,55.62-23.75,2.9-24.52-36.72-30.85-53.76-33.07-38.46-4.37-76.61-.25-114.58,6.24a294.8,294.8,0,0,1-58.76,3c-9.06-.45-23,.08-26.16-10.68-1.84-11.6,11.64-19.76,20-24.84,21.49-13.09,45.66-20.6,69.92-27.59,32.22-8.53,95-17.95,165.73-1.17,21,5.24,48.8,14,57.4,36.4,1,2.59.7,6.88-3.9,8.32a18.51,18.51,0,0,1-1.91.5c-8.16,1.67-16.27-2.69-20.06-10.11C621.1,86.83,593.07,77.38,569.25,73c-34.91-6-69.67-4.73-104.43,1.69-20.58,4.44-40.74,9.87-60.07,18.15-6.89,3-14.51,6.19-18.88,12.61h0c-6.24,12,35.57,8.73,41,8.25,25.56-2.29,51-6,76.63-7.24,48.56-1.87,113.4,3.77,142.71,48.77,11.51,21.86,4.56,40.28-13.09,56.1-26,20.06-62.8,18.38-93.71,19.08-34.07.78-67.69,7.7-101,15.35-33.61,7.82-67.86,27-85.21,57.87-20.59,37.56-13.5,82.84,16.2,113.36,34.94,34.46,92.53,34.08,137.92,28.86,29.3-4.49,51.43-21.83,73.23-40.46a176.4,176.4,0,0,1,93.78-41.63c44.16-4.21,89.91,14.63,120.49,46.34C805.9,421.62,831,450,849.11,436.45c13.75-10.3,6-35.39-2.07-46.23-15.93-21.31-38.51-35.29-46.87-62-9.8-31.28-1.47-65.47-11.6-97-10.4-32.36-63.75-85.39-100.08-60.22-11.52,8-14.37,28.6-2.71,60.63,51,140,6.56,134.55-9.91,85.39-13.55-42.39-25.77-86-21.17-130.67,2.41-23.48,14.93-45.07,39.72-49.23,15.67-2.63,32.74.91,47.14,7.27,29.28,12.92,60.39,44,68.68,75.28,8.59,32.61-1.21,65.6,1.53,98.54,2.15,25.82,16.12,40.67,36.27,53.71C892.69,400.82,893.57,454.44,838.63,480.71Z"></path><path class="cls-4" d="M234.52,536.39c6.41-5.08,17.4-1.59,24.3.45a98.94,98.94,0,0,1,36,19.11c13.28,11.37,33,42.38,11.93,55.83-18.47,11.79-41.71-14.62-52.12-27C247.7,576.43,221.26,546.92,234.52,536.39Z"></path><path class="cls-3" d="M411.05,410.51c-20-9.08-38.43-27.06-39.83-50.13-2.44-40.13,35.26-69,67-85.77A308.85,308.85,0,0,1,578.29,241c28.32.24,61.2,7.59,76.44,34,9.79,19.23,8,40.56-2.57,58.92-11,17.66-28.95,29.34-46.39,39.86-38.13,22-79.46,36.59-123.06,41.49C459.39,417.87,433.31,420.09,411.05,410.51Z"></path><path class="cls-5" d="M700.17,204.32c-.78-4-1-9.55.77-13.24a11.35,11.35,0,0,1,11.43-5.9c7.78,1.41,14.61,6.37,19.89,12.1,11.83,12.24,20.75,26.33,28.45,41.44,14.42,31.66,17.37,66.27,29.55,98.51,11.21,26,29.25,45.38,51.42,62.64a57.23,57.23,0,0,1,7.18,7.13c13.19,14.25.06,23.15-10.88,18.63-23.05-10.12-39.1-30-54.65-49.07-13.93-19.77-26-41.15-38-62.08C726,281,705,243.33,700.17,204.32Z"></path><path class="cls-5" d="M477.47,83.14c-13.06,1.94-27,5-38,12.75a20.56,20.56,0,0,0-2.56,2.1c-3.74,3.62-3.42,6.29,14.86,2.15a207.19,207.19,0,0,0,23.57-6.9C512,78.43,482.48,82.48,477.47,83.14Z"></path><path class="cls-3" d="M298.37,534.47c-21.05-6.4-41-16.16-57.4-31.07-15.5-15-29.55-36.31-29.1-58.67a23.82,23.82,0,0,1,13.06-21.55c13.93-5.2,27.28-2.72,40.85,2.59,26.42,12.38,46,33.43,66.08,54.05,21.09,21.25,43.6,39.88,72.91,48.11,34.12,5.37,65.92-5.44,97.77-16.49,9.81-3,18.05-4.41,28.21-2.85,10,3.77,15.65,13.84,19.18,23.29,8.65,24.83,10.52,48.17,1,72.3-9.84,24.85-26.65,46.62-44.63,67a167.05,167.05,0,0,1-24.07,21.34c-8.34,5.3-18.58,9.88-28.69,9.47-7.32-1-14.14-5.12-15.91-12.77-2.67-12.74-.65-25,.53-37.6,1.41-15.11.79-29.59-4-44.31-10.17-24.39-36-38.85-59.15-48.51C350,549.09,324.13,541.94,298.37,534.47Z"></path></g></g><g id="Layer_5-2" data-name="Layer 5"><path class="cls-1" d="M830.81,677.44c6.26-9.59,14-20.13,14.49-31.79.51-12.73-8.83-23.85-16-33.72-19-27.59-28.35-58.51-26.06-92,3.56-27.06,6.69-53.54-1.14-80.16-9.34-28-35.16-44.13-62.79-50.45-48.86-6.3-96.91,19.12-125,58.46-18.77,28.57-29.69,60.16-33.82,93.43-1.9,15.33-1.56,31.59-2.83,46.93-1.23,15-5.06,29.7-9.29,44.37-17.55,60.37-60.59,114.6-119,139.61-16,6.35-39.47,15.95-56,6.06-6-4-6.45-11.87-4.37-18.19,3.34-8.88,7.17-17.5,11-26.17.31-.73.6-1.46.88-2.2,14.54-38-25.59-73.6-62.05-55.5C218.38,735.87,132.69,566.74,122.28,478.71c-1.57-13.28-3.38-26.48,3.11-34.79,11.76-13.09,21.84-23.51,35-34.73,19.74-16.79,36.55-36.92,52.19-57.92,29-40.57,52.43-84.21,61.61-133.68,3.63-24.6,13.35-86.66-24.17-80.85C176,148.2,135.2,277.51,122.54,321.37c-46,159.16,34.08,352.71,149.55,386.34,53.48,15.57,62.05-31.16,93.46-18.18,13,8.94,4.39,29.4-1.5,42.72-5.24,11.21-12.43,21.87-15.59,34-4.69,19.26,20.24,27.59,34.11,30.62,36.35,7.92,73.78.18,107.29-15.59,42.2-19.87,76-55.92,98.6-96.59,18.51-36.89,29.1-76,34.62-116.79,6-43.33,25.66-88.85,63.18-113.82,19.91-13.22,48.08-17.29,67.25-.44,15.25,12.37,17,35.33,15,53.38-3.4,30.62-10.2,58.21-27.52,84.09-42.11,56.11-98.95,97.17-151.5,142.69-24.26,21.5-53.23,41.6-67.64,71.36-7.59,15.68,8.05,25,22.26,24.39,31.25-.55,61.8-6.33,91.42-15.34,35.49-10.81,68.27-28.17,100.74-46.48C790,735.68,806.25,714.67,830.81,677.44Zm-671-402.73c15.16-35.15,29.37-70.23,58.28-96.53,5-4.18,10.56-8.53,17.37-8.68,6.24.68,10.19,6.16,11.7,11.81,3.26,15.21.4,29.14-2.85,44-3.69,16.83-9.74,32.92-16.56,48.86C211,310.05,189,342.91,165.32,374.07,72.17,496.89,145,308,159.76,274.71ZM779.1,730.06c-28.24,27-112.24,67.31-150.28,78.38-29.86,7.79-23.7-7.45-15.63-19.05,18.79-27,56.52-67.6,71.43-83C705.87,685,730.93,661.27,762,656.8c9.61-.87,21.6-.6,28.78,6.74A33.69,33.69,0,0,1,800,680.66c1.54,8,2,13.54-.17,20.81C796.63,712.09,787.32,721.72,779.1,730.06Z"></path><path class="cls-3" d="M896.5,493c-45.7,22.07-43.28,46-26.42,71C879,577.12,903,603.77,881,616.61c-13.8,8.06-34.68-4.19-44.38-14-24.5-26.14-22.22-69.9-17.63-102.75,5-37.46-4.72-70.32-31-97.73-30.76-28.92-82.92-32.79-117.73-9-29.49,20.39-56.48,44-82.81,68C565.59,481,540.69,495.24,512.61,505c-34.89,11-77.22,12.67-108.76,7.08-27.68-4.89-55.79-16.58-78-35.15-18.77-16.84-37-34.72-49.13-56.24s-17.54-46.31-20.37-71.52c-2.14-36.87,8-70.61,28-101.44,20.21-27.41,46.86-47,76.6-63.06C418.49,155.22,482.77,150,546,143.7c19.21-1.81,62.37-2.36,66-28.17,3.44-29.09-43.55-36.6-63.77-39.23-45.62-5.18-90.88-.29-135.92,7.4a349.62,349.62,0,0,1-69.7,3.58c-10.75-.54-27.24.1-31-12.68-2.18-13.75,13.8-23.44,23.67-29.45,25.49-15.54,54.17-24.44,82.94-32.74C456.43,2.29,530.94-8.88,614.8,11c24.94,6.21,57.89,16.56,68.09,43.17,1.17,3.07.83,8.16-4.63,9.88a22,22,0,0,1-2.26.58c-9.68,2-19.3-3.19-23.8-12-13.75-26.92-47-38.13-75.25-43.32-41.41-7.16-82.64-5.62-123.88,2-24.41,5.26-48.33,11.71-71.26,21.52-8.17,3.5-17.21,7.35-22.39,15h0C352,62.06,401.6,58.22,408,57.64c30.33-2.72,60.48-7.09,90.9-8.58,57.61-2.22,134.52,4.47,169.29,57.85,13.66,25.93,5.41,47.77-15.53,66.54-30.86,23.8-74.49,21.81-111.16,22.64-40.41.92-80.29,9.14-119.81,18.21-39.87,9.27-80.5,32-101.08,68.64-24.42,44.56-16,98.28,19.23,134.47,41.44,40.88,109.75,40.44,163.59,34.24,34.76-5.32,61-25.89,86.87-48a209.24,209.24,0,0,1,111.25-49.38c52.38-5,106.66,17.35,142.93,55,13.2,13.65,42.95,47.37,64.45,31.25,16.32-12.22,7.17-42-2.45-54.85-18.89-25.27-45.67-41.85-55.59-73.49-11.63-37.11-1.75-77.66-13.77-115.1-12.33-38.39-75.62-101.3-118.72-71.44-13.66,9.47-17,33.93-3.21,71.92,60.48,166.11,7.78,159.61-11.76,101.3-16.07-50.28-30.57-102-25.11-155C681.17,116,696,90.36,725.43,85.42c18.59-3.11,38.84,1.09,55.92,8.63,34.74,15.33,71.63,52.17,81.47,89.3,10.19,38.69-1.43,77.81,1.82,116.88,2.55,30.64,19.11,48.25,43,63.72C960.63,398.22,961.67,461.83,896.5,493Z"></path><path class="cls-4" d="M187.5,570.09c8.35-8.85,25.29-6,35.89-4.49,20,2.92,40.06,9.67,57.15,20.5,22,13.93,57.64,55.43,29.43,79.74-24.71,21.28-64.56-12.69-82.53-28.78C215.42,626.29,170.2,588.42,187.5,570.09Z"></path><path class="cls-4" d="M708.42,483.61c3.38,3.4,2.07,10,1.33,14.18A58.16,58.16,0,0,1,701,520c-5.76,8.48-22.54,22-31.76,10.6-8.07-10,5.8-25.26,12.36-32.14C686,493.9,701.42,476.57,708.42,483.61Z"></path><path class="cls-6" d="M389.29,409.71c-23.74-10.77-45.59-32.09-47.25-59.46-2.9-47.6,41.82-81.81,79.46-101.74a366.37,366.37,0,0,1,166.17-39.93c33.6.28,72.61,9,90.68,40.37,11.61,22.81,9.5,48.11-3.05,69.89-13,21-34.34,34.8-55,47.28C575,392.17,526,409.53,474.3,415.34,446.63,418.45,415.69,421.09,389.29,409.71Z"></path><path class="cls-5" d="M732.9,156.41c-.92-4.76-1.2-11.34.91-15.71,2.32-4.82,8.15-7.69,13.56-7,9.23,1.68,17.33,7.56,23.59,14.35,14,14.53,24.62,31.24,33.76,49.16,17.1,37.56,20.6,78.61,35,116.86,13.3,30.89,34.7,53.83,61,74.3,3.1,2.36,5.38,5.07,8.52,8.47,15.65,16.89.07,27.45-12.91,22.09-27.35-12-46.37-35.53-64.82-58.2-16.53-23.46-30.8-48.82-45.13-73.64C763.49,247.37,738.6,202.68,732.9,156.41Z"></path><path class="cls-5" d="M485.2,12.75c-29,4.31-60,11.15-84.45,28.3a46.25,46.25,0,0,0-5.69,4.66c-8.3,8.06-7.6,14,33,4.77A457.73,457.73,0,0,0,480.4,35.17C562,2.29,496.32,11.27,485.2,12.75Z"></path><path class="cls-3" d="M255.63,556.76c-25-7.59-48.69-19.17-68.1-36.86-18.38-17.79-35.05-43.07-34.52-69.59a28.23,28.23,0,0,1,15.5-25.56c16.52-6.18,32.35-3.23,48.45,3.07,31.35,14.68,54.62,39.66,78.38,64.12,25,25.21,51.72,47.3,86.5,57.07,40.47,6.36,78.19-6.45,116-19.56,11.64-3.56,21.42-5.23,33.47-3.39,11.82,4.47,18.56,16.42,22.75,27.63,10.26,29.46,12.48,57.15,1.14,85.77-11.67,29.47-31.61,55.3-52.94,79.5a197.94,197.94,0,0,1-28.56,25.32c-9.88,6.27-22,11.71-34,11.23-8.69-1.25-16.78-6.08-18.88-15.16-3.16-15.1-.77-29.61.63-44.6,1.67-17.92.94-35.1-4.75-52.56-12.07-28.92-42.65-46.08-70.16-57.54C316.8,574.11,286.18,565.62,255.63,556.76Z"></path></g></svg>